<mxfile host="Electron" modified="2025-04-22T07:18:00.553Z" agent="Mozilla/5.0 (Windows NT 10.0; Win64; x64) AppleWebKit/537.36 (KHTML, like Gecko) draw.io/24.6.4 Chrome/124.0.6367.207 Electron/30.0.6 Safari/537.36" etag="FbUopsvXuApJsU0UbpYj" version="24.6.4" type="device">
  <diagram name="Страница — 1" id="PxSmjVjdWc3EpmkDMulp">
    <mxGraphModel dx="2044" dy="524" grid="1" gridSize="10" guides="1" tooltips="1" connect="1" arrows="1" fold="1" page="1" pageScale="1" pageWidth="1169" pageHeight="827" math="0" shadow="0">
      <root>
        <mxCell id="0" />
        <mxCell id="1" parent="0" />
        <mxCell id="rctq9x7ZGal0_HNiKpNq-1" value="Block хранения сообщений" style="verticalAlign=top;align=left;spacingTop=8;spacingLeft=2;spacingRight=12;shape=cube;size=10;direction=south;fontStyle=4;html=1;whiteSpace=wrap;" vertex="1" parent="1">
          <mxGeometry x="710" y="410" width="250" height="156" as="geometry" />
        </mxCell>
        <mxCell id="rctq9x7ZGal0_HNiKpNq-2" value="файловая система" style="shape=module;align=left;spacingLeft=20;align=center;verticalAlign=top;whiteSpace=wrap;html=1;" vertex="1" parent="1">
          <mxGeometry x="720" y="496" width="100" height="50" as="geometry" />
        </mxCell>
        <mxCell id="rctq9x7ZGal0_HNiKpNq-3" value="InMemory" style="shape=module;align=left;spacingLeft=20;align=center;verticalAlign=top;whiteSpace=wrap;html=1;" vertex="1" parent="1">
          <mxGeometry x="835" y="496" width="100" height="50" as="geometry" />
        </mxCell>
        <mxCell id="rctq9x7ZGal0_HNiKpNq-4" value="Actor" style="shape=umlActor;verticalLabelPosition=bottom;verticalAlign=top;html=1;" vertex="1" parent="1">
          <mxGeometry x="-340" y="350" width="30" height="60" as="geometry" />
        </mxCell>
        <mxCell id="rctq9x7ZGal0_HNiKpNq-5" value="Block Client" style="verticalAlign=top;align=left;spacingTop=8;spacingLeft=2;spacingRight=12;shape=cube;size=10;direction=south;fontStyle=4;html=1;whiteSpace=wrap;" vertex="1" parent="1">
          <mxGeometry x="-270" y="340" width="120" height="120" as="geometry" />
        </mxCell>
        <mxCell id="rctq9x7ZGal0_HNiKpNq-6" value="Block Client" style="verticalAlign=top;align=left;spacingTop=8;spacingLeft=2;spacingRight=12;shape=cube;size=10;direction=south;fontStyle=4;html=1;whiteSpace=wrap;" vertex="1" parent="1">
          <mxGeometry x="-270" y="550" width="110" height="120" as="geometry" />
        </mxCell>
        <mxCell id="rctq9x7ZGal0_HNiKpNq-7" value="Actor" style="shape=umlActor;verticalLabelPosition=bottom;verticalAlign=top;html=1;" vertex="1" parent="1">
          <mxGeometry x="-340" y="570" width="30" height="60" as="geometry" />
        </mxCell>
        <mxCell id="rctq9x7ZGal0_HNiKpNq-8" value="" style="shape=flexArrow;endArrow=classic;html=1;rounded=0;" edge="1" parent="1">
          <mxGeometry width="50" height="50" relative="1" as="geometry">
            <mxPoint x="-120" y="400" as="sourcePoint" />
            <mxPoint x="80" y="400" as="targetPoint" />
          </mxGeometry>
        </mxCell>
        <mxCell id="rctq9x7ZGal0_HNiKpNq-9" value="" style="shape=flexArrow;endArrow=classic;html=1;rounded=0;" edge="1" parent="1">
          <mxGeometry width="50" height="50" relative="1" as="geometry">
            <mxPoint x="80" y="610" as="sourcePoint" />
            <mxPoint x="-120" y="610" as="targetPoint" />
          </mxGeometry>
        </mxCell>
        <mxCell id="rctq9x7ZGal0_HNiKpNq-10" value="Publish" style="text;html=1;align=center;verticalAlign=middle;whiteSpace=wrap;rounded=0;" vertex="1" parent="1">
          <mxGeometry x="-60" y="365" width="60" height="30" as="geometry" />
        </mxCell>
        <mxCell id="rctq9x7ZGal0_HNiKpNq-11" value="Subscribe" style="text;html=1;align=center;verticalAlign=middle;whiteSpace=wrap;rounded=0;" vertex="1" parent="1">
          <mxGeometry x="-60" y="570" width="60" height="30" as="geometry" />
        </mxCell>
        <mxCell id="rctq9x7ZGal0_HNiKpNq-12" value="Block" style="verticalAlign=top;align=left;spacingTop=8;spacingLeft=2;spacingRight=12;shape=cube;size=10;direction=south;fontStyle=4;html=1;whiteSpace=wrap;" vertex="1" parent="1">
          <mxGeometry x="140" y="230" width="180" height="120" as="geometry" />
        </mxCell>
        <mxCell id="rctq9x7ZGal0_HNiKpNq-13" value="Block ConnectionManager" style="verticalAlign=top;align=left;spacingTop=8;spacingLeft=2;spacingRight=12;shape=cube;size=10;direction=south;fontStyle=4;html=1;whiteSpace=wrap;" vertex="1" parent="1">
          <mxGeometry x="140" y="414" width="190" height="156" as="geometry" />
        </mxCell>
      </root>
    </mxGraphModel>
  </diagram>
</mxfile>
